P2
9 9
# portable graymap representing a sudoku solution
9
1 2 3 2 2 2 7 8 9
4 5 6 2 2 2 1 2 3
7 8 9 2 2 2 4 5 6
2 3 4 5 6 7 8 9 1 
5 6 7 8 9 1 2 3 4 
8 9 1 2 3 4 5 6 7 
3 4 5 2 2 2 9 1 2
6 7 8 2 2 2 3 4 5
9 1 2 2 2 2 6 7 8