P2
9 9
# portable graymap representing a sudoku solution
9 
1 2 3 4 5 5 8 8 9
4 5 5 8 8 9 1 2 3
8 8 9 1 2 3 4 5 5
2 3 4 5 5 8 8 9 1 
5 5 8 8 9 1 2 3 4 
8 9 1 2 3 4 5 5 8 
3 4 5 5 8 8 9 1 2
5 8 8 9 1 2 3 4 5
9 1 2 3 4 5 5 8 8
